<svg width="73" height="21" viewBox="0 0 73 21" fill="none" xmlns="http://www.w3.org/2000/svg"><path d="M7.36 5.984H2.688V16H1.36V4.8h6v1.184ZM6.096 12c0-1.355.3-2.39.896-3.104.609-.725 1.478-1.088 2.609-1.088.597 0 1.114.101 1.551.304.449.192.817.475 1.105.848.287.363.5.805.64 1.328.138.512.207 1.083.207 1.712 0 1.355-.303 2.395-.911 3.12-.598.715-1.462 1.072-2.592 1.072-.598 0-1.12-.096-1.569-.288a2.95 2.95 0 0 1-1.088-.848 3.753 3.753 0 0 1-.64-1.328A6.731 6.731 0 0 1 6.096 12Zm1.329 0c0 .405.037.795.112 1.168.085.373.213.699.383.976.171.277.395.501.672.672.278.17.614.256 1.008.256 1.451.01 2.177-1.013 2.177-3.072 0-.416-.043-.81-.128-1.184a2.95 2.95 0 0 0-.368-.976 1.885 1.885 0 0 0-.673-.656c-.277-.17-.613-.256-1.008-.256C8.15 8.918 7.426 9.941 7.426 12Zm13.154 3.472a3.38 3.38 0 0 1-1.136.528 4.874 4.874 0 0 1-1.376.192c-.619 0-1.142-.096-1.568-.288a2.843 2.843 0 0 1-1.056-.848 3.879 3.879 0 0 1-.592-1.328A7.899 7.899 0 0 1 14.675 12c0-1.355.298-2.39.896-3.104.597-.725 1.456-1.088 2.576-1.088.512 0 .944.043 1.296.128.362.075.688.187.976.336l-.368 1.104a3.252 3.252 0 0 0-.816-.32 3.48 3.48 0 0 0-.96-.128c-1.515 0-2.272 1.024-2.272 3.072 0 .405.037.795.112 1.168.085.363.218.688.4.976.192.277.437.501.736.672.309.17.688.256 1.136.256.384 0 .725-.059 1.024-.176.309-.117.56-.25.752-.4l.416.976Zm6.616-6.352h-2.512V16h-1.28V9.12h-2.512V8h6.304v1.12Zm6.263 2.144.048-.992h-.048l-.656 1.024-3.6 4.704h-.736V8h1.28v4.88l-.048.944h.064l.624-.992L33.986 8h.752v8h-1.28v-4.736Zm8.639 1.2H38.48V16H37.2V8h1.28v3.344h3.616V8h1.28v8h-1.28v-3.536Zm8.736-1.2.048-.992h-.048l-.656 1.024-3.6 4.704h-.736V8h1.28v4.88l-.048.944h.064l.624-.992L51.361 8h.752v8h-1.28v-4.736Zm10.927 6.768h-.864L60.656 16h-6.08V8h1.28v6.88h3.472V8h1.28v6.88h1.152v3.152Zm2.861-3.152a7.1 7.1 0 0 0 1.136.096c.672 0 1.142-.128 1.408-.384.267-.267.4-.64.4-1.12 0-.427-.133-.779-.4-1.056-.256-.277-.709-.416-1.36-.416-.181 0-.378.005-.592.016-.213.01-.41.043-.592.096v2.768Zm0-3.824c.256-.043.502-.07.736-.08.235-.021.459-.032.672-.032.544 0 .998.064 1.36.192.374.117.672.283.896.496.224.213.379.47.464.768.096.288.144.597.144.928 0 .97-.272 1.675-.816 2.112-.533.437-1.402.656-2.608.656-.682 0-1.392-.032-2.128-.096V8h1.28v3.056ZM70.157 8h1.28v8h-1.28V8Z" fill="#fff"/></svg>